<?xml version="1.0" encoding="UTF-8"?>
<svg id="Calque_2" data-name="Calque 2" xmlns="http://www.w3.org/2000/svg" xmlns:xlink="http://www.w3.org/1999/xlink" viewBox="0 0 206.96 124.93">
  <defs>
    <style>
      .cls-1 {
        fill: url(#Dégradé_sans_nom_5-22);
      }

      .cls-1, .cls-2, .cls-3, .cls-4, .cls-5, .cls-6, .cls-7, .cls-8, .cls-9, .cls-10, .cls-11, .cls-12, .cls-13, .cls-14, .cls-15, .cls-16, .cls-17, .cls-18, .cls-19, .cls-20, .cls-21, .cls-22, .cls-23, .cls-24, .cls-25, .cls-26, .cls-27, .cls-28, .cls-29, .cls-30, .cls-31, .cls-32 {
        stroke-width: 0px;
      }

      .cls-2 {
        fill: url(#Dégradé_sans_nom_5-9);
      }

      .cls-3 {
        fill: url(#Dégradé_sans_nom_5-20);
      }

      .cls-4 {
        fill: url(#Dégradé_sans_nom_5-16);
      }

      .cls-4, .cls-11, .cls-18, .cls-20, .cls-22, .cls-27, .cls-29 {
        fill-rule: evenodd;
      }

      .cls-5 {
        fill: url(#Dégradé_sans_nom_5-28);
      }

      .cls-6 {
        fill: url(#Dégradé_sans_nom_5-26);
      }

      .cls-7 {
        fill: url(#Dégradé_sans_nom_5-4);
      }

      .cls-8 {
        fill: url(#Dégradé_sans_nom_5-12);
      }

      .cls-9 {
        fill: url(#Dégradé_sans_nom_5-7);
      }

      .cls-10 {
        fill: #ffffffff;
      }

      .cls-11 {
        fill: url(#Dégradé_sans_nom_5-14);
      }

      .cls-12 {
        fill: url(#Dégradé_sans_nom_5-3);
      }

      .cls-13 {
        fill: url(#Dégradé_sans_nom_5-13);
      }

      .cls-14 {
        fill: url(#Dégradé_sans_nom_5-27);
      }

      .cls-15 {
        fill: url(#Dégradé_sans_nom_5-19);
      }

      .cls-16 {
        fill: url(#Dégradé_sans_nom_5-8);
      }

      .cls-17 {
        fill: url(#Dégradé_sans_nom_5-5);
      }

      .cls-18 {
        fill: url(#Dégradé_sans_nom_5-17);
      }

      .cls-19 {
        fill: url(#Dégradé_sans_nom_5-24);
      }

      .cls-20 {
        fill: url(#Dégradé_sans_nom_5);
      }

      .cls-21 {
        fill: url(#Dégradé_sans_nom_5-29);
      }

      .cls-22 {
        fill: url(#Dégradé_sans_nom_5-2);
      }

      .cls-23 {
        fill: url(#Dégradé_sans_nom_5-6);
      }

      .cls-24 {
        fill: #ffffffff;
      }

      .cls-25 {
        fill: url(#Dégradé_sans_nom_5-21);
      }

      .cls-26 {
        fill: url(#Dégradé_sans_nom_5-11);
      }

      .cls-27 {
        fill: url(#Dégradé_sans_nom_5-15);
      }

      .cls-28 {
        fill: url(#Dégradé_sans_nom_5-23);
      }

      .cls-29 {
        fill: url(#Dégradé_sans_nom_5-18);
      }

      .cls-30 {
        fill: url(#Dégradé_sans_nom_5-10);
      }

      .cls-31 {
        fill: url(#Dégradé_sans_nom_5-25);
      }

      .cls-32 {
        fill: #ffffffff;
      }
    </style>
    <radialGradient id="Dégradé_sans_nom_5" data-name="Dégradé sans nom 5" cx="93.95" cy="13.5" fx="93.95" fy="13.5" r="73.23" gradientTransform="translate(-83.99 -3.81) scale(1.07)" gradientUnits="userSpaceOnUse">
      <stop offset="0" stop-color="#ffffffff"/>
      <stop offset=".72" stop-color="#ffffffff"/>
    </radialGradient>
    <radialGradient id="Dégradé_sans_nom_5-2" data-name="Dégradé sans nom 5" cx="93.97" cy="13.49" fx="93.97" fy="13.49" r="73.49" xlink:href="#Dégradé_sans_nom_5"/>
    <radialGradient id="Dégradé_sans_nom_5-3" data-name="Dégradé sans nom 5" cx="94.23" cy="11.93" fx="94.23" fy="11.93" r="70.58" xlink:href="#Dégradé_sans_nom_5"/>
    <radialGradient id="Dégradé_sans_nom_5-4" data-name="Dégradé sans nom 5" cx="95.49" cy="12.92" fx="95.49" fy="12.92" r="71.23" xlink:href="#Dégradé_sans_nom_5"/>
    <radialGradient id="Dégradé_sans_nom_5-5" data-name="Dégradé sans nom 5" cx="93.39" cy="12.85" fx="93.39" fy="12.85" r="74" xlink:href="#Dégradé_sans_nom_5"/>
    <radialGradient id="Dégradé_sans_nom_5-6" data-name="Dégradé sans nom 5" cx="23.09" cy="14.03" fx="23.09" fy="14.03" r="72.64" gradientTransform="matrix(1,0,0,1,0,0)" xlink:href="#Dégradé_sans_nom_5"/>
    <radialGradient id="Dégradé_sans_nom_5-7" data-name="Dégradé sans nom 5" cx="-19.47" cy="1135.8" fx="-19.47" fy="1135.8" r="70.76" gradientTransform="translate(648.82 -511.08) rotate(44.97) scale(.69) skewX(.01)" xlink:href="#Dégradé_sans_nom_5"/>
    <radialGradient id="Dégradé_sans_nom_5-8" data-name="Dégradé sans nom 5" cx="94.29" cy="14.26" fx="94.29" fy="14.26" r="72.78" xlink:href="#Dégradé_sans_nom_5"/>
    <radialGradient id="Dégradé_sans_nom_5-9" data-name="Dégradé sans nom 5" cx="94.29" cy="14.49" fx="94.29" fy="14.49" r="72.8" xlink:href="#Dégradé_sans_nom_5"/>
    <radialGradient id="Dégradé_sans_nom_5-10" data-name="Dégradé sans nom 5" cx="22.74" cy="15.5" fx="22.74" fy="15.5" r="72.32" gradientTransform="matrix(1,0,0,1,0,0)" xlink:href="#Dégradé_sans_nom_5"/>
    <radialGradient id="Dégradé_sans_nom_5-11" data-name="Dégradé sans nom 5" cx="94.27" cy="14.84" fx="94.27" fy="14.84" r="71.23" xlink:href="#Dégradé_sans_nom_5"/>
    <radialGradient id="Dégradé_sans_nom_5-12" data-name="Dégradé sans nom 5" cx="93.02" cy="12.36" fx="93.02" fy="12.36" r="74.85" xlink:href="#Dégradé_sans_nom_5"/>
    <radialGradient id="Dégradé_sans_nom_5-13" data-name="Dégradé sans nom 5" cx="94.7" cy="12.44" fx="94.7" fy="12.44" r="72.39" gradientTransform="translate(-27.72 -108.22) rotate(45) scale(1.07)" xlink:href="#Dégradé_sans_nom_5"/>
    <radialGradient id="Dégradé_sans_nom_5-14" data-name="Dégradé sans nom 5" cx="93.02" cy="13.01" fx="93.02" fy="13.01" r="71.44" xlink:href="#Dégradé_sans_nom_5"/>
    <radialGradient id="Dégradé_sans_nom_5-15" data-name="Dégradé sans nom 5" cx="93.86" cy="12.36" fx="93.86" fy="12.36" r="70.72" xlink:href="#Dégradé_sans_nom_5"/>
    <radialGradient id="Dégradé_sans_nom_5-16" data-name="Dégradé sans nom 5" cx="93.31" cy="12.55" fx="93.31" fy="12.55" r="72.36" xlink:href="#Dégradé_sans_nom_5"/>
    <radialGradient id="Dégradé_sans_nom_5-17" data-name="Dégradé sans nom 5" cx="93.09" cy="12.55" fx="93.09" fy="12.55" r="72.36" xlink:href="#Dégradé_sans_nom_5"/>
    <radialGradient id="Dégradé_sans_nom_5-18" data-name="Dégradé sans nom 5" cx="93.31" cy="12.33" fx="93.31" fy="12.33" r="72.36" xlink:href="#Dégradé_sans_nom_5"/>
    <radialGradient id="Dégradé_sans_nom_5-19" data-name="Dégradé sans nom 5" cx="93.36" cy="14.63" fx="93.36" fy="14.63" r="70.81" xlink:href="#Dégradé_sans_nom_5"/>
    <radialGradient id="Dégradé_sans_nom_5-20" data-name="Dégradé sans nom 5" cx="93.27" cy="12.55" fx="93.27" fy="12.55" r="73.6" xlink:href="#Dégradé_sans_nom_5"/>
    <radialGradient id="Dégradé_sans_nom_5-21" data-name="Dégradé sans nom 5" cx="93.4" cy="12.69" fx="93.4" fy="12.69" r="73.63" xlink:href="#Dégradé_sans_nom_5"/>
    <radialGradient id="Dégradé_sans_nom_5-22" data-name="Dégradé sans nom 5" cx="93.86" cy="12.36" fx="93.86" fy="12.36" r="72.59" xlink:href="#Dégradé_sans_nom_5"/>
    <radialGradient id="Dégradé_sans_nom_5-23" data-name="Dégradé sans nom 5" cx="94.24" cy="12.36" fx="94.24" fy="12.36" r="72.51" xlink:href="#Dégradé_sans_nom_5"/>
    <radialGradient id="Dégradé_sans_nom_5-24" data-name="Dégradé sans nom 5" cx="93.02" cy="13.1" fx="93.02" fy="13.1" r="72.77" xlink:href="#Dégradé_sans_nom_5"/>
    <radialGradient id="Dégradé_sans_nom_5-25" data-name="Dégradé sans nom 5" cx="93.02" cy="13.47" fx="93.02" fy="13.47" r="72.61" xlink:href="#Dégradé_sans_nom_5"/>
    <radialGradient id="Dégradé_sans_nom_5-26" data-name="Dégradé sans nom 5" cx="21.69" cy="13.14" fx="21.69" fy="13.14" r="73.53" gradientTransform="matrix(1,0,0,1,0,0)" xlink:href="#Dégradé_sans_nom_5"/>
    <radialGradient id="Dégradé_sans_nom_5-27" data-name="Dégradé sans nom 5" cx="22.21" cy="12.62" fx="22.21" fy="12.62" r="73.53" gradientTransform="matrix(1,0,0,1,0,0)" xlink:href="#Dégradé_sans_nom_5"/>
    <radialGradient id="Dégradé_sans_nom_5-28" data-name="Dégradé sans nom 5" cx="92.92" cy="12.55" fx="92.92" fy="12.55" r="73.59" xlink:href="#Dégradé_sans_nom_5"/>
    <radialGradient id="Dégradé_sans_nom_5-29" data-name="Dégradé sans nom 5" cx="8.87" cy="36.1" fx="8.87" fy="36.1" r="23.13" gradientTransform="matrix(1,0,0,1,0,0)" xlink:href="#Dégradé_sans_nom_5"/>
  </defs>
  <g id="Calque_1-2" data-name="Calque 1">
    <path class="cls-24" d="M18.53,15.11l2.82-2.04,2.82,2.04-1.09-3.28,2.8-2.02h-3.47l-1.12-3.35-1.06,3.35h-3.4l2.77,2-1.06,3.31ZM23.75,10.5l-.9.65-.22-.65h1.12ZM22.27,11.57l-.92.66-.95-.69.33-1.05h1.18l.36,1.07ZM21.3,8.7l.37,1.11h-.73l.35-1.11ZM18.95,10.5h1.06l-.2.62-.86-.62ZM19.83,13.32l.35-1.09.58.42-.93.67ZM21.94,12.65l.56-.4.36,1.07-.92-.67Z"/>
    <g>
      <path class="cls-32" d="M100.35,77.15l-1.22-2.98h-5.62l-1.22,2.98h-2.98l5.7-13.39h2.7l5.7,13.39h-3.06ZM96.33,67.27l-1.77,4.31h3.53l-1.77-4.31Z"/>
      <path class="cls-32" d="M110,77.34c-2.01,0-4.05-.7-5.64-2.13l1.73-2.07c1.2.99,2.45,1.62,3.97,1.62,1.2,0,1.92-.47,1.92-1.25v-.04c0-.74-.46-1.12-2.68-1.69-2.68-.68-4.41-1.42-4.41-4.07v-.04c0-2.41,1.94-4.01,4.65-4.01,1.94,0,3.59.61,4.94,1.69l-1.52,2.2c-1.18-.82-2.34-1.31-3.46-1.31s-1.71.51-1.71,1.16v.04c0,.87.57,1.16,2.87,1.75,2.7.7,4.22,1.67,4.22,3.99v.04c0,2.64-2.01,4.12-4.88,4.12Z"/>
      <path class="cls-32" d="M121.97,77.34c-2.01,0-4.05-.7-5.64-2.13l1.73-2.07c1.2.99,2.45,1.62,3.97,1.62,1.2,0,1.92-.47,1.92-1.25v-.04c0-.74-.46-1.12-2.68-1.69-2.68-.68-4.41-1.42-4.41-4.07v-.04c0-2.41,1.94-4.01,4.65-4.01,1.94,0,3.59.61,4.94,1.69l-1.52,2.2c-1.18-.82-2.34-1.31-3.46-1.31s-1.71.51-1.71,1.16v.04c0,.87.57,1.16,2.87,1.75,2.7.7,4.22,1.67,4.22,3.99v.04c0,2.64-2.01,4.12-4.88,4.12Z"/>
      <path class="cls-32" d="M129.4,77.15v-13.3h10.03v2.6h-7.12v2.7h6.27v2.6h-6.27v2.79h7.22v2.6h-10.13Z"/>
      <path class="cls-32" d="M152.52,77.15v-8.68l-3.74,5.68h-.08l-3.71-5.62v8.62h-2.87v-13.3h3.15l3.5,5.62,3.5-5.62h3.15v13.3h-2.91Z"/>
      <path class="cls-32" d="M164.95,77.15h-6.33v-13.3h6.17c2.72,0,4.39,1.35,4.39,3.44v.04c0,1.5-.8,2.34-1.75,2.87,1.54.59,2.49,1.48,2.49,3.27v.04c0,2.43-1.98,3.65-4.98,3.65ZM166.28,67.79c0-.87-.68-1.37-1.92-1.37h-2.89v2.81h2.7c1.29,0,2.11-.42,2.11-1.41v-.04ZM167.02,73.1c0-.89-.67-1.44-2.17-1.44h-3.38v2.93h3.48c1.29,0,2.07-.46,2.07-1.44v-.04Z"/>
      <path class="cls-32" d="M172.34,77.15v-13.3h2.93v10.64h6.63v2.66h-9.56Z"/>
      <path class="cls-32" d="M184.1,77.15v-13.3h10.03v2.6h-7.12v2.7h6.27v2.6h-6.27v2.79h7.22v2.6h-10.13ZM187.52,62.81l2.15-3.36,2.49,1.08-2.43,2.28h-2.2Z"/>
      <path class="cls-32" d="M196.83,77.15v-13.3h10.03v2.6h-7.12v2.7h6.27v2.6h-6.27v2.79h7.22v2.6h-10.13Z"/>
    </g>
    <g>
      <path class="cls-32" d="M97.01,97.62c-4.57,0-7.71-3.21-7.71-7.54v-.04c0-4.17,3.25-7.58,7.69-7.58,2.64,0,4.23.71,5.76,2.01l-2.03,2.45c-1.13-.94-2.14-1.49-3.83-1.49-2.35,0-4.21,2.07-4.21,4.57v.04c0,2.68,1.84,4.65,4.44,4.65,1.17,0,2.22-.29,3.04-.88v-2.1h-3.25v-2.79h6.37v6.37c-1.51,1.28-3.58,2.33-6.27,2.33Z"/>
      <path class="cls-32" d="M106.38,97.36v-14.67h11.06v2.87h-7.86v2.98h6.91v2.87h-6.91v3.08h7.96v2.87h-11.17ZM110.16,81.54l2.37-3.71,2.74,1.19-2.68,2.51h-2.43Z"/>
      <path class="cls-32" d="M130.71,97.36l-7.1-9.32v9.32h-3.18v-14.67h2.98l6.87,9.03v-9.03h3.19v14.67h-2.74Z"/>
      <path class="cls-32" d="M136.99,97.36v-14.67h11.06v2.87h-7.86v2.98h6.91v2.87h-6.91v3.08h7.96v2.87h-11.17ZM140.76,81.54l2.37-3.71,2.74,1.19-2.68,2.51h-2.43Z"/>
      <path class="cls-32" d="M159.93,97.36l-3.14-4.69h-2.54v4.69h-3.23v-14.67h6.71c3.46,0,5.53,1.82,5.53,4.84v.04c0,2.37-1.28,3.86-3.14,4.55l3.58,5.24h-3.77ZM160,87.7c0-1.38-.96-2.1-2.54-2.1h-3.21v4.21h3.27c1.57,0,2.47-.84,2.47-2.07v-.04Z"/>
      <path class="cls-32" d="M177.1,97.36l-1.34-3.29h-6.2l-1.34,3.29h-3.29l6.29-14.77h2.98l6.29,14.77h-3.37ZM172.66,86.47l-1.95,4.76h3.9l-1.95-4.76Z"/>
      <path class="cls-32" d="M182.74,97.36v-14.67h3.23v11.73h7.31v2.93h-10.54Z"/>
      <path class="cls-32" d="M195.72,97.36v-14.67h11.06v2.87h-7.86v2.98h6.91v2.87h-6.91v3.08h7.96v2.87h-11.17Z"/>
    </g>
    <g>
      <path class="cls-32" d="M93.34,113.57h-4.14v-11.92h4.14c3.75,0,6.33,2.57,6.33,5.94s-2.59,5.98-6.33,5.98ZM93.34,102.89h-2.79v9.43h2.79c3.01,0,4.94-2.04,4.94-4.7s-1.92-4.73-4.94-4.73Z"/>
      <path class="cls-32" d="M111.14,102.88h-7.27v4.07h6.5v1.23h-6.5v4.17h7.35v1.23h-8.7v-11.92h8.61v1.23Z"/>
      <path class="cls-32" d="M119.04,101.65h1.34v10.67h6.71v1.24h-8.05v-11.92Z"/>
      <path class="cls-32" d="M140.68,113.57h-1.45l-1.4-3.15h-6.49l-1.41,3.15h-1.38l5.43-12h1.26l5.43,12ZM134.61,103.13l-2.72,6.08h5.43l-2.71-6.08Z"/>
      <path class="cls-32" d="M156.71,102.89h-7.22v4.26h6.45v1.23h-6.45v5.19h-1.34v-11.92h8.56v1.24Z"/>
      <path class="cls-32" d="M169.06,113.57h-1.45l-1.4-3.15h-6.49l-1.41,3.15h-1.38l5.43-12h1.26l5.43,12ZM162.98,103.13l-2.72,6.08h5.43l-2.71-6.08Z"/>
      <path class="cls-32" d="M180.18,101.65h1.31v11.92h-1.07l-7.7-9.77v9.77h-1.31v-11.92h1.26l7.51,9.55v-9.55Z"/>
      <path class="cls-32" d="M195.96,113.57h-1.45l-1.4-3.15h-6.49l-1.41,3.15h-1.38l5.43-12h1.26l5.43,12ZM189.89,103.13l-2.72,6.08h5.43l-2.71-6.08Z"/>
      <path class="cls-32" d="M206.88,102.89h-7.22v4.26h6.45v1.23h-6.45v5.19h-1.34v-11.92h8.56v1.24Z"/>
    </g>
    <g>
      <path class="cls-10" d="M97.25,17.57h-8.61l-22.7,23.04v10.32h21.12v7.97h10.18v-7.97h5.22v-8.5h-5.22v-24.86ZM87.17,42.49h-10.89l10.89-11.16v11.16Z"/>
      <path class="cls-10" d="M133.12,21.85c-3.11-3.11-6.63-4.81-12.61-4.81-9.38,0-16.36,5.86-16.36,14.95v.12c0,8.03,5.8,12.96,13.78,12.96,3.64,0,6.57-1.35,8.68-3.34-.53,5.28-3.05,8.56-7.74,8.56-3.28,0-5.98-1.06-8.8-3.28l-5.34,7.86c3.75,2.93,8.21,4.87,14.31,4.87,12.31,0,19-9.15,19-22.57v-.12c0-7.56-1.94-12.25-4.93-15.19ZM126.79,31.58c0,2.99-2.17,5.34-5.75,5.34s-5.86-2.29-5.86-5.39v-.12c0-3.17,2.17-5.51,5.75-5.51s5.86,2.4,5.86,5.57v.12Z"/>
    </g>
    <g>
      <path class="cls-10" d="M137.88,23.66v-5.39h4.07v1.06h-2.89v1.09h2.54v1.06h-2.54v1.13h2.93v1.06h-4.11ZM139.68,17.84l-.99-.92,1.01-.44.87,1.36h-.89Z"/>
      <path class="cls-10" d="M147.27,23.66v-3.52l-1.52,2.3h-.03l-1.5-2.28v3.5h-1.16v-5.39h1.28l1.42,2.28,1.42-2.28h1.28v5.39h-1.18Z"/>
      <path class="cls-10" d="M149.74,23.66v-5.39h4.07v1.06h-2.89v1.09h2.54v1.06h-2.54v1.13h2.93v1.06h-4.11Z"/>
    </g>
    <g>
      <path class="cls-20" d="M68.79,66.18c-.23-.23-.68-.42-1.01-.42h-5.99c-.33,0-.59.27-.59.59v5.99c0,.33.19.78.42,1.01l5.18,5.18c.23.23.42.15.42-.17v-5.99c0-.33.27-.59.59-.59h5.99c.33,0,.4-.19.17-.42l-5.18-5.18Z"/>
      <path class="cls-22" d="M78.97,76.37c-.23-.23-.68-.42-1-.42h-5.99c-.33,0-.59.27-.59.59v5.99c0,.33.19.78.41,1.01l7.64,7.84c.23.23.41.16.41-.17v-5.99c0-.33.27-.59.59-.59h5.99c.33,0,.41-.19.18-.42l-7.64-7.84Z"/>
      <path class="cls-12" d="M42.31,0c.33,0,.4.19.17.42l-4.16,4.15c-.23.23-.61.23-.84,0L33.34.42c-.23-.23-.15-.42.17-.42h8.8Z"/>
      <path class="cls-7" d="M70.56,27.37c-.23.23-.42.15-.42-.17v-4.74c0-.33.27-.59.59-.59h4.74c.33,0,.4.19.17.42l-5.08,5.08Z"/>
      <path class="cls-17" d="M56.66,62.1c0-.33.27-.59.59-.59h11.45c.33,0,.78-.19,1.01-.42l5.42-5.42c.23-.23.15-.42-.17-.42h-23.95c-.33,0-.59.27-.59.59v23.95c0,.33.19.4.42.17l5.42-5.42c.23-.23.42-.68.42-1.01v-11.45Z"/>
      <path class="cls-23" d="M79.47,61.29v5.37c0,.33-.19.4-.42.17l-2.14-2.14c-.23-.23-.23-.61,0-.84l2.56-2.56M81.97,55.84c0-.33-.19-.4-.42-.17l-8.18,8.18c-.23.23-.23.61,0,.84l8.18,8.18c.23.23.42.15.42-.17v-3.3c0-.33,0-.86,0-1.18v-7.88c0-.33,0-.86,0-1.18v-3.3Z"/>
      <path class="cls-9" d="M76.53,95.86l.84-.84.93-.93c.23-.23.15-.42-.17-.42h-5.91c-.33,0-.59.27-.59.59v5.91c0,.33.2.4.43.17l.93-.93.84-.84,2.72-2.73Z"/>
      <path class="cls-16" d="M59.45,82.81c.23-.23.61-.23.84,0l3.88,3.88c.23.23.68.42,1.01.42h3.48c.33,0,.4-.19.17-.42l-8.54-8.54c-.23-.23-.61-.23-.84,0l-8.54,8.54c-.23.23-.15.42.17.42h3.48c.33,0,.78-.19,1.01-.42l3.88-3.88Z"/>
      <path class="cls-2" d="M59.45,92.27c.23-.23.61-.23.84,0l3.88,3.88c.23.23.68.42,1.01.42h3.48c.33,0,.4-.19.17-.42l-8.54-8.54c-.23-.23-.61-.23-.84,0l-8.54,8.54c-.23.23-.15.42.17.42h3.48c.33,0,.78-.19,1.01-.42l3.88-3.88Z"/>
      <path class="cls-30" d="M59.86,101.89l2.45,2.45c.23.23.23.61,0,.84l-2.04,2.04c-.23.23-.61.23-.84,0l-2.04-2.04c-.23-.23-.23-.61,0-.84l2.45-2.45M60.28,97.9c-.23-.23-.61-.23-.84,0l-6.45,6.45c-.23.23-.23.61,0,.84l6.45,6.45c.23.23.61.23.84,0l6.45-6.45c.23-.23.23-.61,0-.84l-6.45-6.45Z"/>
      <path class="cls-26" d="M46.65,67.76c0,.33-.19.4-.42.17l-4.9-4.9c-.23-.23-.23-.61,0-.84l4.9-4.9c.23-.23.42-.15.42.17v10.29Z"/>
      <rect class="cls-8" x="50.4" y="40.47" width="10.58" height="10.58" rx=".59" ry=".59"/>
      <rect class="cls-13" x="64.88" y="6.62" width="10.58" height="10.58" rx=".59" ry=".59" transform="translate(12.13 53.11) rotate(-45)"/>
      <g>
        <g>
          <path class="cls-11" d="M18.38,19.78c-.23.23-.42.68-.42,1.01v4.35c0,.33.19.4.42.17l2.47-2.47c.23-.23.61-.23.84,0l2.47,2.47c.23.23.42.15.42-.17v-4.35c0-.33-.19-.78-.42-1.01l-2.47-2.47c-.23-.23-.61-.23-.84,0l-2.47,2.47Z"/>
          <path class="cls-27" d="M30.14,8.62c-.33,0-.78.19-1.01.42l-2.47,2.47c-.23.23-.23.61,0,.84l2.47,2.47c.23.23.68.42,1.01.42h4.35c.33,0,.4-.19.17-.42l-2.47-2.47c-.23-.23-.23-.61,0-.84l2.47-2.47c.23-.23.15-.42-.17-.42h-4.35Z"/>
          <path class="cls-4" d="M29.88,15.86c-.23-.23-.68-.42-1.01-.42h-3.49c-.33,0-.59.27-.59.59v3.49c0,.33.19.78.42,1.01l3.08,3.08c.23.23.42.15.42-.17v-3.49c0-.33.27-.59.59-.59h3.49c.33,0,.4-.19.17-.42l-3.08-3.08Z"/>
        </g>
        <path class="cls-18" d="M17.35,20.48c.23-.23.42-.68.42-1.01v-3.49c0-.33-.27-.59-.59-.59h-3.49c-.33,0-.78.19-1.01.42l-3.08,3.08c-.23.23-.15.42.17.42h3.49c.33,0,.59.27.59.59v3.49c0,.33.19.4.42.17l3.08-3.08Z"/>
        <path class="cls-29" d="M28.9,8.38c.33,0,.78-.19,1.01-.42l3.08-3.08c.23-.23.15-.42-.17-.42h-3.49c-.33,0-.59-.27-.59-.59V.38c0-.33-.19-.4-.42-.17l-3.08,3.08c-.23.23-.42.68-.42,1.01v3.49c0,.33.27.59.59.59h3.49Z"/>
      </g>
      <path class="cls-15" d="M17.28,54.75c-.33,0-.4-.19-.17-.42l3.75-3.75c.23-.23.61-.23.84,0l3.75,3.75c.23.23.15.42-.17.42h-7.99Z"/>
      <path class="cls-3" d="M47.85,27.67c.33,0,.4-.19.17-.42l-4.94-4.94c-.23-.23-.68-.42-1.01-.42h-10.22c-.33,0-.59.27-.59.59v10.22c0,.33.19.78.42,1.01l4.94,4.94c.23.23.42.15.42-.17v-10.22c0-.33.27-.59.59-.59h10.22Z"/>
      <path class="cls-25" d="M56.5,36.33c.33,0,.4-.19.17-.42l-4.94-4.94c-.23-.23-.68-.42-1.01-.42h-10.22c-.33,0-.59.27-.59.59v10.22c0,.33.19.78.42,1.01l4.94,4.94c.23.23.42.15.42-.17v-10.22c0-.33.27-.59.59-.59h10.22Z"/>
      <g>
        <path class="cls-1" d="M51.21,4.27c.23-.23.15-.42-.17-.42h-6.98c-.33,0-.78.19-1.01.42l-7.22,7.22c-.23.23-.23.61,0,.84l7.22,7.22c.23.23.68.42,1.01.42h6.98c.33,0,.4-.19.17-.42l-7.22-7.22c-.23-.23-.23-.61,0-.84l7.22-7.22Z"/>
        <path class="cls-28" d="M63.45,4.27c.23-.23.15-.42-.17-.42h-6.98c-.33,0-.78.19-1.01.42l-7.22,7.22c-.23.23-.23.61,0,.84l7.22,7.22c.23.23.68.42,1.01.42h6.98c.33,0,.4-.19.17-.42l-7.22-7.22c-.23-.23-.23-.61,0-.84l7.22-7.22Z"/>
      </g>
      <g>
        <path class="cls-19" d="M28.92,41.84c.23.23.42.15.42-.17v-6.98c0-.33-.19-.78-.42-1.01l-7.22-7.22c-.23-.23-.61-.23-.84,0l-7.22,7.22c-.23.23-.42.68-.42,1.01v6.98c0,.33.19.4.42.17l7.22-7.22c.23-.23.61-.23.84,0l7.22,7.22Z"/>
        <path class="cls-31" d="M28.92,54.09c.23.23.42.15.42-.17v-6.98c0-.33-.19-.78-.42-1.01l-7.22-7.22c-.23-.23-.61-.23-.84,0l-7.22,7.22c-.23.23-.42.68-.42,1.01v6.98c0,.33.19.4.42.17l7.22-7.22c.23-.23.61-.23.84,0l7.22,7.22Z"/>
      </g>
      <path class="cls-6" d="M36.15,47.82l4.41,4.47c.23.23.23.61,0,.84l-1.14,1.14c-.23.23-.68.42-1.01.42h-1.62c-.33,0-.59-.27-.6-.59l-.04-6.28M33.54,40.94c-.23-.23-.41-.15-.41.17l.11,15.96c0,.33.27.59.6.59h5.8c.33,0,.78-.19,1.01-.42l4.1-4.1c.23-.23.23-.61,0-.84l-11.21-11.37Z"/>
      <path class="cls-14" d="M57.18,26.78l6.28.04c.33,0,.59.27.59.6v1.62c0,.33-.19.78-.42,1.01l-1.14,1.14c-.23.23-.61.23-.84,0l-4.47-4.41M50.47,23.76c-.33,0-.4.18-.17.41l11.37,11.21c.23.23.61.23.84,0l4.1-4.1c.23-.23.42-.68.42-1.01v-5.8c0-.33-.27-.59-.59-.6l-15.96-.11Z"/>
      <path class="cls-5" d="M6.2,21.9c-.33,0-.78.19-1.01.41L.13,27.26c-.23.23-.16.41.17.41h4.62c.33,0,.59.27.59.59v10.22c0,.33.19.4.42.17l4.94-4.94c.23-.23.42-.68.42-1.01v-10.22c0-.33-.27-.59-.59-.59h-4.49Z"/>
      <path class="cls-21" d="M9.42,41.11c0-.33-.18-.4-.41-.17l-2.57,2.61c-.23.23-.23.61,0,.84l2.52,2.52c.23.23.42.15.42-.17l.04-5.62Z"/>
    </g>
  </g>
</svg>